<svg width="76" height="78" viewBox="0 0 76 78" fill="none" xmlns="http://www.w3.org/2000/svg">
<g clip-path="url(#clip0)" filter="url(#filter0_d)">
<path d="M71.4614 33.4715C71.4577 14.9819 56.4656 -0.00373771 37.9755 6.99302e-07C19.4859 0.00373911 4.5002 14.9963 4.50394 33.4859C4.50714 48.0502 13.9252 60.9413 27.7995 65.3713C27.932 65.413 28.0698 65.4343 28.2081 65.4338C28.4719 65.4333 28.7304 65.3628 28.9574 65.2287C29.2527 65.0541 29.4733 64.7764 29.5769 64.449L38.0315 37.6521C40.3429 37.6404 42.2068 35.7568 42.1945 33.4459C42.1828 31.1345 40.2997 29.2706 37.9883 29.2824C37.3666 29.285 36.753 29.4282 36.1944 29.7011L25.0251 18.5302C24.4708 17.9951 23.588 18.0106 23.0528 18.5644C22.5305 19.1054 22.5305 19.962 23.0528 20.503L34.2162 31.6792C33.3596 33.4277 33.8493 35.5383 35.3896 36.7303L27.3338 62.2647C11.4136 56.4002 3.26172 38.7405 9.12621 22.8203C14.9907 6.90002 32.6504 -1.25183 48.5706 4.61266C64.4909 10.4771 72.6428 28.1374 66.7783 44.0571C63.913 51.8351 58.0261 58.1252 50.4548 61.4989L49.5843 57.3989C49.4251 56.6454 48.6844 56.1636 47.9308 56.3233C47.6932 56.3741 47.4726 56.4857 47.291 56.6475L38.8978 64.1409C38.3221 64.653 38.2708 65.5347 38.7835 66.1105C38.9501 66.2974 39.1637 66.4362 39.403 66.5126L50.1189 69.9327C50.8521 70.1682 51.6377 69.765 51.8732 69.0312C51.948 68.7994 51.9603 68.5527 51.9101 68.3145L51.0545 64.2915C63.4452 59.0678 71.4903 46.918 71.4614 33.4715ZM37.9829 32.0766C38.7531 32.0766 39.3779 32.7014 39.3779 33.4715C39.3779 34.2422 38.7531 34.8665 37.9829 34.8665C37.2123 34.8665 36.588 34.2422 36.588 33.4715C36.588 32.7014 37.2123 32.0766 37.9829 32.0766ZM42.5774 64.5916L47.3551 60.3298L48.6737 66.543L42.5774 64.5916Z" fill="#212121"/>
<path d="M36.588 6.96732V9.75723C36.588 10.5279 37.2123 11.1522 37.9829 11.1522C38.753 11.1522 39.3779 10.5279 39.3779 9.75723V6.96732C39.3779 6.1972 38.753 5.57236 37.9829 5.57236C37.2123 5.57236 36.588 6.1972 36.588 6.96732Z" fill="#2196F3"/>
<path d="M11.4787 32.0765C10.7081 32.0765 10.0838 32.7014 10.0838 33.4715C10.0838 34.2421 10.7081 34.8665 11.4787 34.8665H14.2686C15.0393 34.8665 15.6636 34.2421 15.6636 33.4715C15.6636 32.7014 15.0393 32.0765 14.2686 32.0765H11.4787Z" fill="#2196F3"/>
<path d="M64.4865 34.8665C65.2572 34.8665 65.8815 34.2421 65.8815 33.4715C65.8815 32.7014 65.2572 32.0765 64.4865 32.0765H61.6966C60.9265 32.0765 60.3017 32.7014 60.3017 33.4715C60.3017 34.2421 60.9265 34.8665 61.6966 34.8665H64.4865Z" fill="#2196F3"/>
</g>
<defs>
<filter id="filter0_d" x="-1" y="0" width="78" height="78" filterUnits="userSpaceOnUse" color-interpolation-filters="sRGB">
<feFlood flood-opacity="0" result="BackgroundImageFix"/>
<feColorMatrix in="SourceAlpha" type="matrix" values="0 0 0 0 0 0 0 0 0 0 0 0 0 0 0 0 0 0 127 0"/>
<feOffset dy="4"/>
<feGaussianBlur stdDeviation="2"/>
<feColorMatrix type="matrix" values="0 0 0 0 0 0 0 0 0 0 0 0 0 0 0 0 0 0 0.25 0"/>
<feBlend mode="normal" in2="BackgroundImageFix" result="effect1_dropShadow"/>
<feBlend mode="normal" in="SourceGraphic" in2="effect1_dropShadow" result="shape"/>
</filter>
<clipPath id="clip0">
<rect width="70" height="70" fill="white" transform="translate(3)"/>
</clipPath>
</defs>
</svg>
